:FULLY-SPECIFIED
:FORCE-ALL-JOINTS-BE-3DOF
:DEGREES
781
root 1.81688 16.2769 18.7299 -19.2967 77.7403 -26.3172
lfemur -41.3078 19.0695 -17.4018
ltibia 51.4115 -0 0
lfoot -23.331 19.4244 -0.374902
ltoes 23.1686 -0 0
rfemur -13.8088 -23.4658 22.3681
rtibia 50.5165 -0 0
rfoot -20.4118 -33.0055 -0.109194
rtoes -21.1056 0 0
lowerback 1.21203 4.74766 -0.646005
upperback -1.03062 6.31934 -3.62196
thorax -1.39374 3.17455 -3.49905
lowerneck -5.3947 -6.46722 -0.723544
upperneck -2.61173 -8.48924 5.26742
head 0.386913 -4.16672 1.58196
lclavicle 1.64792e-013 -2.06736e-014 0
lhumerus -55.2415 -11.0601 94.1699
lradius 68.8065 -0 0
lwrist 12.7618 0 0
lhand -18.3061 -5.05563 0.0765927
lfingers 7.12502 -0 0
lthumb 7.97435 24.7605 0.0716022
rclavicle 1.64792e-013 -2.06736e-014 0
rhumerus -29.3749 48.6779 -110.863
rradius 78.3182 -0 0
rwrist 6.18183 0 0
rhand -20.9197 -20.9621 -0.0469983
rfingers 7.12502 -0 0
rthumb 5.45171 -50.8655 -0.0446552
782
root 1.81332 16.295 18.8311 -14.8791 75.4352 -21.9435
lfemur -41.2889 18.3568 -16.9953
ltibia 50.9432 -0 0
lfoot -22.9433 18.5767 -0.432772
ltoes 22.7598 -0 0
rfemur -13.4735 -22.5565 22.2353
rtibia 49.7658 -0 0
rfoot -20.5229 -32.1437 -0.126042
rtoes -21.0263 0 0
lowerback 1.25405 4.75201 -0.445766
upperback -0.987413 6.32819 -3.52184
thorax -1.36174 3.17748 -3.50789
lowerneck -5.42553 -6.31633 -0.618223
upperneck -2.56559 -8.2983 5.12865
head 0.393094 -4.07304 1.52569
lclavicle 1.64792e-013 -2.06736e-014 0
lhumerus -55.1897 -10.9483 94.1038
lradius 68.4318 -0 0
lwrist 13.1508 0 0
lhand -18.0956 -4.7352 0.0883828
lfingers 7.12502 -0 0
lthumb 8.17743 25.071 0.0826237
rclavicle 1.64792e-013 -2.06736e-014 0
rhumerus -29.5343 48.5498 -111.017
rradius 77.9731 -0 0
rwrist 6.03178 0 0
rhand -20.7765 -21.2512 -0.0542317
rfingers 7.12502 -0 0
rthumb 5.58995 -51.1501 -0.0515279
783
root 1.80976 16.3131 18.9322 -11.6702 73.0686 -18.7786
lfemur -41.2754 17.644 -16.5906
ltibia 50.4749 -0 0
lfoot -22.5548 17.7287 -0.484898
ltoes 22.351 -0 0
rfemur -13.1425 -21.6465 22.1091
rtibia 49.0152 -0 0
rfoot -20.6343 -31.2819 -0.141216
rtoes -20.9469 0 0
lowerback 1.29609 4.75621 -0.245522
upperback -0.944187 6.33696 -3.42172
thorax -1.32974 3.18041 -3.51673
lowerneck -5.45607 -6.16539 -0.513015
upperneck -2.51995 -8.10725 4.99009
head 0.399183 -3.97936 1.46945
lclavicle 1.64792e-013 -2.06736e-014 0
lhumerus -55.1381 -10.8365 94.0379
lradius 68.057 -0 0
lwrist 13.5397 0 0
lhand -17.8851 -4.41473 0.0989954
lfingers 7.12502 -0 0
lthumb 8.38056 25.3816 0.0925444
rclavicle 1.64792e-013 -2.06736e-014 0
rhumerus -29.6928 48.4214 -111.171
rradius 77.6281 -0 0
rwrist 5.88174 0 0
rhand -20.6333 -21.5403 -0.0607424
rfingers 7.12502 -0 0
rthumb 5.72822 -51.4347 -0.0577139
784
root 1.80621 16.3313 19.0334 -9.24321 70.663 -16.3961
lfemur -41.2672 16.931 -16.1876
ltibia 50.0066 -0 0
lfoot -22.1656 16.8803 -0.531268
ltoes 21.9422 -0 0
rfemur -12.8158 -20.7359 21.9893
rtibia 48.2645 -0 0
rfoot -20.7459 -30.42 -0.154713
rtoes -20.8676 0 0
lowerback 1.33814 4.76026 -0.0452746
upperback -0.900945 6.34566 -3.32158
thorax -1.29774 3.18335 -3.52556
lowerneck -5.48632 -6.01439 -0.407917
upperneck -2.4748 -7.91609 4.85176
head 0.405178 -3.88567 1.41322
lclavicle 1.64792e-013 -2.06736e-014 0
lhumerus -55.0866 -10.7246 93.972
lradius 67.6823 -0 0
lwrist 13.9287 0 0
lhand -17.6745 -4.09423 0.10843
lfingers 7.12502 -0 0
lthumb 8.58375 25.6922 0.101364
rclavicle 1.64792e-013 -2.06736e-014 0
rhumerus -29.8504 48.2928 -111.323
rradius 77.2831 -0 0
rwrist 5.73169 0 0
rhand -20.49 -21.8294 -0.0665302
rfingers 7.12502 -0 0
rthumb 5.86652 -51.7193 -0.063213
785
root 1.80265 16.3494 19.1345 -7.34621 68.2313 -14.5438
lfemur -41.2643 16.2181 -15.7862
ltibia 49.5383 -0 0
lfoot -21.7757 16.0317 -0.571869
ltoes 21.5334 -0 0
rfemur -12.493 -19.8246 21.8757
rtibia 47.5139 -0 0
rfoot -20.8577 -29.5582 -0.166529
rtoes -20.7883 0 0
lowerback 1.3802 4.76417 0.154977
upperback -0.857688 6.35429 -3.22144
thorax -1.26574 3.18629 -3.53439
lowerneck -5.51628 -5.86333 -0.302928
upperneck -2.43013 -7.72483 4.71364
head 0.411081 -3.79197 1.35701
lclavicle 1.64792e-013 -2.06736e-014 0
lhumerus -55.0353 -10.6127 93.9063
lradius 67.3075 -0 0
lwrist 14.3176 0 0
lhand -17.4638 -3.77369 0.116686
lfingers 7.12502 -0 0
lthumb 8.78698 26.0028 0.109082
rclavicle 1.64792e-013 -2.06736e-014 0
rhumerus -30.0071 48.1638 -111.475
rradius 76.9381 -0 0
rwrist 5.58164 0 0
rhand -20.3467 -22.1186 -0.0715949
rfingers 7.12502 -0 0
rthumb 6.00484 -52.0039 -0.0680251
786
root 1.7991 16.3675 19.2357 -5.82293 65.7814 -13.0656
lfemur -41.2666 15.5051 -15.3863
ltibia 49.0701 -0 0
lfoot -21.3852 15.1827 -0.60669
ltoes 21.1247 -0 0
rfemur -12.1739 -18.9127 21.7682
rtibia 46.7632 -0 0
rfoot -20.9697 -28.6963 -0.176663
rtoes -20.7089 0 0
lowerback 1.42228 4.76793 0.355233
upperback -0.814414 6.36283 -3.12129
thorax -1.23374 3.18924 -3.54323
lowerneck -5.54596 -5.71222 -0.198046
upperneck -2.38595 -7.53346 4.57573
head 0.41689 -3.69827 1.30081
lclavicle 1.64792e-013 -2.06736e-014 0
lhumerus -54.9841 -10.5007 93.8407
lradius 66.9328 -0 0
lwrist 14.7066 0 0
lhand -17.2531 -3.45312 0.123764
lfingers 7.12502 -0 0
lthumb 8.99025 26.3135 0.115697
rclavicle 1.64792e-013 -2.06736e-014 0
rhumerus -30.1629 48.0346 -111.626
rradius 76.5931 -0 0
rwrist 5.4316 0 0
rhand -20.2034 -22.4077 -0.0759364
rfingers 7.12502 -0 0
rthumb 6.14319 -52.2885 -0.0721501
787
root 1.79554 16.3857 19.3368 -4.57211 63.3183 -11.8602
lfemur -41.274 14.7922 -14.9877
ltibia 48.6018 -0 0
lfoot -20.9943 14.3336 -0.635721
ltoes 20.7159 -0 0
rfemur -11.8583 -18.0003 21.6666
rtibia 46.0126 -0 0
rfoot -21.0818 -27.8344 -0.185111
rtoes -20.6296 0 0
lowerback 1.46437 4.77154 0.555493
upperback -0.771125 6.37131 -3.02113
thorax -1.20174 3.19219 -3.55206
lowerneck -5.57535 -5.56106 -0.0932701
upperneck -2.34225 -7.34198 4.43803
head 0.422608 -3.60456 1.24463
lclavicle 1.64792e-013 -2.06736e-014 0
lhumerus -54.9331 -10.3887 93.7752
lradius 66.558 -0 0
lwrist 15.0955 0 0
lhand -17.0423 -3.13253 0.129662
lfingers 7.12502 -0 0
lthumb 9.19355 26.6241 0.121211
rclavicle 1.64792e-013 -2.06736e-014 0
rhumerus -30.3178 47.9051 -111.776
rradius 76.2481 -0 0
rwrist 5.28155 0 0
rhand -20.06 -22.6969 -0.0795546
rfingers 7.12502 -0 0
rthumb 6.28155 -52.5731 -0.0755877
